<svg width="128" height="38" viewBox="0 0 128 38" fill="none" xmlns="http://www.w3.org/2000/svg">
<path d="M6.534 11.68C7.47267 11.68 8.30133 11.8707 9.02 12.252C9.75333 12.6187 10.3253 13.0807 10.736 13.638V11.878H13.266V24.198C13.266 25.3127 13.0313 26.3027 12.562 27.168C12.0927 28.048 11.4107 28.7373 10.516 29.236C9.636 29.7347 8.58 29.984 7.348 29.984C5.70533 29.984 4.34133 29.5953 3.256 28.818C2.17067 28.0553 1.55467 27.014 1.408 25.694H3.894C4.08467 26.3247 4.488 26.8307 5.104 27.212C5.73467 27.608 6.48267 27.806 7.348 27.806C8.36 27.806 9.174 27.498 9.79 26.882C10.4207 26.266 10.736 25.3713 10.736 24.198V22.174C10.3107 22.746 9.73133 23.23 8.998 23.626C8.27933 24.0073 7.458 24.198 6.534 24.198C5.478 24.198 4.51 23.934 3.63 23.406C2.76467 22.8633 2.07533 22.1153 1.562 21.162C1.06333 20.194 0.814 19.1013 0.814 17.884C0.814 16.6667 1.06333 15.5887 1.562 14.65C2.07533 13.7113 2.76467 12.9853 3.63 12.472C4.51 11.944 5.478 11.68 6.534 11.68ZM10.736 17.928C10.736 17.092 10.56 16.366 10.208 15.75C9.87067 15.134 9.42333 14.6647 8.866 14.342C8.30867 14.0193 7.70733 13.858 7.062 13.858C6.41667 13.858 5.81533 14.0193 5.258 14.342C4.70067 14.65 4.246 15.112 3.894 15.728C3.55667 16.3293 3.388 17.048 3.388 17.884C3.388 18.72 3.55667 19.4533 3.894 20.084C4.246 20.7147 4.70067 21.1987 5.258 21.536C5.83 21.8587 6.43133 22.02 7.062 22.02C7.70733 22.02 8.30867 21.8587 8.866 21.536C9.42333 21.2133 9.87067 20.744 10.208 20.128C10.56 19.4973 10.736 18.764 10.736 17.928ZM27.5382 11.878V24H25.0302V22.57C24.6342 23.0687 24.1135 23.4647 23.4682 23.758C22.8375 24.0367 22.1628 24.176 21.4442 24.176C20.4908 24.176 19.6328 23.978 18.8702 23.582C18.1222 23.186 17.5282 22.5993 17.0882 21.822C16.6628 21.0447 16.4502 20.106 16.4502 19.006V11.878H18.9362V18.632C18.9362 19.7173 19.2075 20.5533 19.7502 21.14C20.2928 21.712 21.0335 21.998 21.9722 21.998C22.9108 21.998 23.6515 21.712 24.1942 21.14C24.7515 20.5533 25.0302 19.7173 25.0302 18.632V11.878H27.5382ZM30.0113 17.884C30.0113 16.6667 30.2606 15.5887 30.7593 14.65C31.2726 13.7113 31.9619 12.9853 32.8273 12.472C33.7073 11.944 34.6753 11.68 35.7313 11.68C36.6846 11.68 37.5133 11.8707 38.2173 12.252C38.9359 12.6187 39.5079 13.0807 39.9333 13.638V11.878H42.4633V24H39.9333V22.196C39.5079 22.768 38.9286 23.2447 38.1953 23.626C37.4619 24.0073 36.6259 24.198 35.6873 24.198C34.6459 24.198 33.6926 23.934 32.8273 23.406C31.9619 22.8633 31.2726 22.1153 30.7593 21.162C30.2606 20.194 30.0113 19.1013 30.0113 17.884ZM39.9333 17.928C39.9333 17.092 39.7573 16.366 39.4053 15.75C39.0679 15.134 38.6206 14.6647 38.0633 14.342C37.5059 14.0193 36.9046 13.858 36.2593 13.858C35.6139 13.858 35.0126 14.0193 34.4553 14.342C33.8979 14.65 33.4433 15.112 33.0913 15.728C32.7539 16.3293 32.5853 17.048 32.5853 17.884C32.5853 18.72 32.7539 19.4533 33.0913 20.084C33.4433 20.7147 33.8979 21.1987 34.4553 21.536C35.0273 21.8587 35.6286 22.02 36.2593 22.02C36.9046 22.02 37.5059 21.8587 38.0633 21.536C38.6206 21.2133 39.0679 20.744 39.4053 20.128C39.7573 19.4973 39.9333 18.764 39.9333 17.928ZM48.2654 13.638C48.6321 13.022 49.1161 12.5453 49.7174 12.208C50.3334 11.856 51.0594 11.68 51.8954 11.68V14.276H51.2574C50.2748 14.276 49.5268 14.5253 49.0134 15.024C48.5148 15.5227 48.2654 16.388 48.2654 17.62V24H45.7574V11.878H48.2654V13.638ZM65.3108 17.642C65.3108 18.0967 65.2814 18.5073 65.2228 18.874H55.9608C56.0341 19.842 56.3934 20.6193 57.0388 21.206C57.6841 21.7927 58.4761 22.086 59.4148 22.086C60.7641 22.086 61.7174 21.5213 62.2748 20.392H64.9808C64.6141 21.5067 63.9468 22.4233 62.9788 23.142C62.0254 23.846 60.8374 24.198 59.4148 24.198C58.2561 24.198 57.2148 23.9413 56.2908 23.428C55.3814 22.9 54.6628 22.1667 54.1348 21.228C53.6214 20.2747 53.3648 19.1747 53.3648 17.928C53.3648 16.6813 53.6141 15.5887 54.1128 14.65C54.6261 13.6967 55.3374 12.9633 56.2468 12.45C57.1708 11.9367 58.2268 11.68 59.4148 11.68C60.5588 11.68 61.5781 11.9293 62.4728 12.428C63.3674 12.9267 64.0641 13.6307 64.5628 14.54C65.0614 15.4347 65.3108 16.4687 65.3108 17.642ZM62.6928 16.85C62.6781 15.926 62.3481 15.1853 61.7028 14.628C61.0574 14.0707 60.2581 13.792 59.3048 13.792C58.4394 13.792 57.6988 14.0707 57.0828 14.628C56.4668 15.1707 56.1001 15.9113 55.9828 16.85H62.6928ZM73.8949 11.68C74.8482 11.68 75.6989 11.878 76.4469 12.274C77.2096 12.67 77.8036 13.2567 78.2289 14.034C78.6542 14.8113 78.8669 15.75 78.8669 16.85V24H76.3809V17.224C76.3809 16.1387 76.1096 15.31 75.5669 14.738C75.0242 14.1513 74.2836 13.858 73.3449 13.858C72.4062 13.858 71.6582 14.1513 71.1009 14.738C70.5582 15.31 70.2869 16.1387 70.2869 17.224V24H67.7789V11.878H70.2869V13.264C70.6976 12.7653 71.2182 12.3767 71.8489 12.098C72.4942 11.8193 73.1762 11.68 73.8949 11.68ZM84.992 13.924V20.634C84.992 21.0887 85.0947 21.4187 85.3 21.624C85.52 21.8147 85.8867 21.91 86.4 21.91H87.94V24H85.96C84.8307 24 83.9653 23.736 83.364 23.208C82.7627 22.68 82.462 21.822 82.462 20.634V13.924H81.032V11.878H82.462V8.864H84.992V11.878H87.94V13.924H84.992ZM101.362 17.642C101.362 18.0967 101.332 18.5073 101.274 18.874H92.0116C92.0849 19.842 92.4442 20.6193 93.0896 21.206C93.7349 21.7927 94.5269 22.086 95.4656 22.086C96.8149 22.086 97.7682 21.5213 98.3256 20.392H101.032C100.665 21.5067 99.9976 22.4233 99.0296 23.142C98.0762 23.846 96.8882 24.198 95.4656 24.198C94.3069 24.198 93.2656 23.9413 92.3416 23.428C91.4322 22.9 90.7136 22.1667 90.1856 21.228C89.6722 20.2747 89.4156 19.1747 89.4156 17.928C89.4156 16.6813 89.6649 15.5887 90.1636 14.65C90.6769 13.6967 91.3882 12.9633 92.2976 12.45C93.2216 11.9367 94.2776 11.68 95.4656 11.68C96.6096 11.68 97.6289 11.9293 98.5236 12.428C99.4182 12.9267 100.115 13.6307 100.614 14.54C101.112 15.4347 101.362 16.4687 101.362 17.642ZM98.7436 16.85C98.7289 15.926 98.3989 15.1853 97.7536 14.628C97.1082 14.0707 96.3089 13.792 95.3556 13.792C94.4902 13.792 93.7496 14.0707 93.1336 14.628C92.5176 15.1707 92.1509 15.9113 92.0336 16.85H98.7436ZM102.994 17.884C102.994 16.6667 103.243 15.5887 103.742 14.65C104.255 13.7113 104.944 12.9853 105.81 12.472C106.69 11.944 107.665 11.68 108.736 11.68C109.528 11.68 110.305 11.856 111.068 12.208C111.845 12.5453 112.461 13 112.916 13.572V7.72H115.446V24H112.916V22.174C112.505 22.7607 111.933 23.2447 111.2 23.626C110.481 24.0073 109.652 24.198 108.714 24.198C107.658 24.198 106.69 23.934 105.81 23.406C104.944 22.8633 104.255 22.1153 103.742 21.162C103.243 20.194 102.994 19.1013 102.994 17.884ZM112.916 17.928C112.916 17.092 112.74 16.366 112.388 15.75C112.05 15.134 111.603 14.6647 111.046 14.342C110.488 14.0193 109.887 13.858 109.242 13.858C108.596 13.858 107.995 14.0193 107.438 14.342C106.88 14.65 106.426 15.112 106.074 15.728C105.736 16.3293 105.568 17.048 105.568 17.884C105.568 18.72 105.736 19.4533 106.074 20.084C106.426 20.7147 106.88 21.1987 107.438 21.536C108.01 21.8587 108.611 22.02 109.242 22.02C109.887 22.02 110.488 21.8587 111.046 21.536C111.603 21.2133 112.05 20.744 112.388 20.128C112.74 19.4973 112.916 18.764 112.916 17.928Z" fill="#4A5056"/>
<circle cx="123" cy="26" r="5" fill="#EA1D63"/>
</svg>
